<?xml version="1.0" standalone="no"?>
<!DOCTYPE svg PUBLIC "-//W3C//DTD SVG 20010904//EN"
 "http://www.w3.org/TR/2001/REC-SVG-20010904/DTD/svg10.dtd">
<svg version="1.0" xmlns="http://www.w3.org/2000/svg"
 width="500.000000pt" height="500.000000pt" viewBox="0 0 500.000000 500.000000"
 preserveAspectRatio="xMidYMid meet">

<g transform="translate(0.000000,500.000000) scale(0.100000,-0.100000)"
fill="#000000" stroke="none">
<path d="M2366 4863 l-49 -4 7 -76 c3 -42 6 -145 6 -230 l0 -153 118 0 c152 0
192 7 192 31 0 18 -10 19 -125 19 l-125 0 0 80 0 79 108 3 c102 3 107 4 110
26 3 22 2 22 -112 22 l-116 0 0 80 0 80 120 0 120 0 0 25 0 25 -102 -2 c-57
-1 -125 -3 -152 -5z"/>
<path d="M2876 4676 c-21 -89 -44 -184 -52 -213 -19 -69 -18 -80 8 -86 29 -8
32 -1 54 99 10 46 23 84 29 84 37 -2 132 -32 142 -47 8 -10 13 -50 13 -104 0
-88 5 -99 43 -99 19 0 21 175 3 211 -12 24 -12 29 -1 29 8 0 30 14 49 31 44
38 56 89 32 133 -26 47 -52 61 -172 93 l-110 30 -38 -161z m239 50 c13 -9 26
-23 29 -33 9 -29 -8 -75 -37 -96 -24 -19 -31 -19 -99 -8 -40 7 -77 16 -82 21
-6 6 -5 24 2 47 6 21 15 57 21 80 l11 41 66 -18 c37 -11 77 -26 89 -34z"/>
<path d="M1890 4785 c-132 -30 -152 -38 -147 -60 2 -11 23 -87 47 -170 23 -82
47 -172 54 -200 9 -40 16 -51 34 -53 32 -5 36 17 17 90 -31 115 -37 102 54
128 104 29 141 66 141 138 0 63 -36 117 -88 131 -43 13 -41 13 -112 -4z m111
-64 c38 -38 41 -101 7 -126 -21 -14 -149 -59 -153 -53 -5 7 -45 148 -45 160 0
8 23 20 58 30 84 23 100 21 133 -11z"/>
<path d="M1329 4557 c-103 -38 -160 -103 -167 -192 -4 -47 0 -65 26 -118 79
-159 221 -206 349 -115 59 43 83 91 83 165 -1 165 -161 308 -291 260z m118
-68 c46 -28 80 -76 104 -144 22 -64 19 -102 -13 -148 -56 -79 -165 -80 -238
-1 -112 122 -106 249 15 305 46 22 82 19 132 -12z"/>
<path d="M3739 4450 c-19 -26 -58 -80 -87 -121 -29 -41 -73 -102 -97 -136 -25
-35 -45 -67 -45 -72 0 -6 9 -15 20 -21 17 -9 26 -1 77 70 32 44 61 80 66 80 7
0 80 -49 144 -97 31 -24 32 -24 42 -4 12 21 3 30 -103 105 -54 38 -55 39 -41
65 8 14 29 44 48 65 l34 40 82 -60 c46 -32 90 -63 98 -69 10 -7 18 -5 28 9 15
20 14 22 -191 164 l-40 29 -35 -47z"/>
<path d="M4125 4053 c-50 -43 -122 -104 -162 -136 -97 -78 -100 -83 -78 -107
17 -19 19 -18 88 40 39 33 74 60 78 60 10 0 84 -91 92 -113 9 -23 -5 -50 -60
-112 -49 -56 -51 -65 -24 -89 19 -17 20 -17 35 11 8 16 22 36 32 44 32 26 74
92 74 115 0 20 2 21 33 12 64 -20 147 43 147 112 0 35 -49 114 -112 183 l-53
58 -90 -78z m150 -60 c56 -72 60 -109 14 -147 -49 -41 -91 -31 -149 38 -54 64
-55 59 11 115 34 28 65 51 70 51 5 0 29 -26 54 -57z"/>
<path d="M706 4042 c-16 -18 -10 -25 116 -142 73 -68 138 -129 143 -134 6 -6
22 -21 36 -34 l26 -23 60 63 c142 150 148 158 131 174 -13 14 -22 8 -81 -53
-36 -37 -73 -78 -84 -91 l-18 -23 -150 140 c-83 77 -153 141 -156 141 -3 0
-13 -8 -23 -18z"/>
<path d="M499 3768 c-49 -95 -94 -178 -110 -205 l-20 -31 63 -37 c124 -72 331
-185 339 -185 7 0 149 252 149 264 0 3 -8 10 -19 15 -16 9 -25 -3 -76 -97 -32
-59 -59 -109 -61 -111 -1 -1 -34 14 -73 35 l-70 38 52 98 c44 83 49 100 37
108 -8 5 -17 10 -20 10 -6 0 -55 -88 -89 -157 -9 -18 -19 -32 -24 -33 -4 0
-24 10 -45 23 -20 12 -49 29 -64 36 -16 8 -28 17 -28 20 0 4 21 42 46 86 60
105 68 126 52 137 -20 12 -26 10 -39 -14z"/>
<path d="M4422 3590 c-60 -13 -144 -63 -178 -107 -22 -29 -29 -50 -32 -99 -5
-79 11 -126 60 -180 64 -69 159 -81 268 -33 84 37 149 122 150 196 0 76 -61
178 -125 211 -32 16 -96 21 -143 12z m142 -71 c31 -15 67 -72 73 -117 11 -84
-71 -169 -189 -194 -100 -21 -175 27 -193 124 -8 45 29 113 82 151 72 51 161
66 227 36z"/>
<path d="M256 3268 c-3 -13 -6 -26 -6 -29 0 -6 125 -90 293 -197 l78 -50 -63
-6 c-35 -3 -133 -11 -218 -17 -156 -11 -170 -15 -170 -52 0 -20 -19 -21 305 9
94 9 173 19 176 22 4 4 10 21 14 38 6 31 4 33 -117 115 -68 45 -158 107 -202
136 -43 29 -79 53 -81 53 -1 0 -5 -10 -9 -22z"/>
<path d="M4750 2963 c-80 -9 -347 -44 -367 -48 -26 -6 -32 -42 -8 -51 12 -5
299 28 363 42 33 7 21 -8 -40 -50 -29 -20 -78 -54 -108 -76 -30 -22 -85 -61
-122 -86 -66 -45 -68 -48 -68 -89 0 -23 2 -44 5 -46 2 -3 87 5 187 18 101 13
202 26 226 29 37 5 42 8 42 31 l0 26 -87 -7 c-49 -4 -135 -14 -191 -22 -57 -9
-106 -13 -109 -11 -3 3 11 16 30 29 19 13 61 42 93 65 33 23 97 69 144 101 87
61 98 78 86 128 -4 15 -13 23 -24 22 -9 0 -33 -3 -52 -5z"/>
<path d="M153 2653 c-10 -3 -13 -44 -13 -154 l0 -149 133 0 c72 0 176 3 230 7
l97 6 0 149 c0 141 -1 148 -20 148 -19 0 -20 -7 -20 -125 l0 -125 -80 0 -79 0
-3 113 c-3 108 -4 112 -25 115 -23 3 -23 2 -23 -112 l0 -116 -80 0 -79 0 -3
122 c-3 118 -7 133 -35 121z"/>
<path d="M4802 2263 c-7 -42 -14 -79 -17 -81 -2 -2 -94 9 -205 25 l-201 29 -5
-23 c-4 -13 -4 -26 -1 -29 3 -3 80 -16 171 -29 91 -13 182 -27 202 -31 40 -7
38 7 18 -124 -5 -32 -3 -41 11 -46 21 -9 31 6 39 60 3 22 14 101 25 175 11 74
18 138 15 143 -3 4 -13 8 -23 8 -14 0 -20 -15 -29 -77z"/>
<path d="M400 2124 c-74 -20 -110 -43 -144 -91 -44 -63 -45 -118 -7 -241 l31
-100 77 23 c43 12 139 39 213 60 74 21 139 42 143 45 10 9 -16 111 -45 180
-46 109 -149 157 -268 124z m168 -74 c50 -31 114 -185 80 -194 -7 -2 -49 -14
-93 -26 -44 -13 -117 -33 -163 -45 -96 -26 -92 -29 -112 76 -11 61 -10 71 8
112 16 37 29 49 73 70 70 34 158 37 207 7z"/>
<path d="M4323 1531 c-32 -57 -33 -71 -7 -71 14 0 76 115 67 124 -15 15 -30 2
-60 -53z"/>
<path d="M3975 1314 c-39 -47 -82 -100 -97 -117 -33 -38 -33 -39 -10 -54 16
-10 26 -2 75 61 32 40 68 83 82 96 l24 23 56 -47 c30 -26 55 -51 55 -56 0 -4
-15 -26 -32 -48 -18 -22 -46 -56 -63 -77 -39 -47 -40 -52 -16 -64 17 -9 23 -6
42 22 13 17 31 41 40 52 10 11 30 35 44 53 l27 32 31 -22 c18 -11 46 -35 64
-51 l32 -30 -76 -94 c-61 -75 -74 -97 -62 -104 8 -5 17 -9 21 -9 3 0 48 50 99
112 l92 111 -25 21 c-14 12 -87 72 -164 135 -76 63 -146 120 -154 127 -14 11
-26 1 -85 -72z"/>
<path d="M1023 1171 c-64 -30 -86 -88 -59 -153 7 -15 3 -16 -27 -11 -42 6 -72
-9 -97 -50 -39 -64 -19 -111 91 -215 l66 -63 129 138 c176 188 184 197 184
204 0 9 -127 121 -160 141 -42 27 -81 29 -127 9z m144 -79 c81 -65 81 -61 16
-131 l-58 -62 -47 43 c-62 58 -79 91 -66 129 24 68 84 76 155 21z m-117 -187
l43 -44 -48 -50 c-27 -28 -54 -51 -59 -51 -6 0 -32 22 -58 49 -35 36 -48 57
-48 77 1 35 19 60 51 72 35 13 69 -2 119 -53z"/>
<path d="M3703 1033 l-22 -15 42 -61 c23 -33 65 -93 93 -133 28 -41 57 -82 66
-91 48 -56 35 -52 -206 72 -164 85 -170 87 -195 72 -52 -32 -51 -34 83 -226
70 -99 134 -181 141 -181 7 0 18 6 24 13 11 14 -7 43 -159 259 -28 39 -49 73
-47 74 2 2 92 -42 200 -97 l197 -100 33 22 c17 13 34 24 36 25 2 2 -6 15 -16
31 -102 148 -245 353 -246 352 -1 0 -12 -7 -24 -16z"/>
<path d="M1433 895 c-7 -19 -18 -12 109 -79 l107 -57 -36 -67 c-20 -37 -38
-69 -39 -71 -4 -4 -138 63 -169 85 -26 18 -32 18 -45 -5 -9 -17 0 -25 85 -71
52 -28 95 -56 95 -61 0 -19 -62 -129 -73 -129 -6 0 -53 23 -104 51 -52 28
-101 48 -109 45 -29 -11 -12 -33 59 -71 155 -83 186 -99 190 -95 6 8 201 372
208 390 5 12 -22 31 -121 83 -71 37 -133 67 -139 67 -7 0 -14 -7 -18 -15z"/>
<path d="M3155 726 c-137 -48 -182 -91 -200 -187 -16 -89 43 -222 114 -258 63
-32 94 -34 183 -10 84 23 148 46 148 54 0 15 -144 435 -149 434 -3 -1 -47 -15
-96 -33z m119 -198 c31 -92 56 -171 56 -176 0 -5 -34 -19 -75 -32 -65 -20 -80
-22 -114 -12 -131 40 -173 279 -59 338 29 15 131 53 134 50 1 0 27 -76 58
-168z"/>
<path d="M1948 628 c-12 -24 -59 -119 -105 -213 -70 -147 -79 -171 -65 -177
31 -12 42 -8 53 20 6 15 21 50 33 77 13 28 45 97 71 155 26 58 51 109 55 113
4 5 13 -79 20 -187 7 -107 16 -199 20 -205 3 -6 20 -14 38 -17 l32 -6 89 183
89 184 5 -55 c4 -30 9 -122 12 -205 3 -82 7 -150 8 -151 1 -1 15 -4 31 -8 l29
-7 -7 118 c-18 286 -22 353 -27 357 -2 2 -20 7 -39 11 l-35 6 -89 -183 -89
-183 -16 198 c-17 209 -19 217 -68 217 -16 0 -29 -12 -45 -42z"/>
</g>
</svg>
