<svg id="visual" viewBox="0 0 900 600" width="900" height="600" xmlns="http://www.w3.org/2000/svg" xmlns:xlink="http://www.w3.org/1999/xlink" version="1.1"><rect x="0" y="0" width="900" height="600" fill="#fff"></rect><path d="M0 360L129 396L257 408L386 349L514 360L643 447L771 417L900 401L900 601L771 601L643 601L514 601L386 601L257 601L129 601L0 601Z" fill="#d8d6e5"></path><path d="M0 393L129 437L257 420L386 398L514 464L643 429L771 433L900 465L900 601L771 601L643 601L514 601L386 601L257 601L129 601L0 601Z" fill="#c7c5d3"></path><path d="M0 469L129 447L257 511L386 447L514 478L643 458L771 504L900 449L900 601L771 601L643 601L514 601L386 601L257 601L129 601L0 601Z" fill="#b6b5c2"></path><path d="M0 518L129 517L257 484L386 488L514 503L643 503L771 530L900 481L900 601L771 601L643 601L514 601L386 601L257 601L129 601L0 601Z" fill="#a6a5b1"></path><path d="M0 536L129 533L257 531L386 556L514 525L643 553L771 572L900 572L900 601L771 601L643 601L514 601L386 601L257 601L129 601L0 601Z" fill="#9695a0"></path></svg>