<svg id="visual" viewBox="0 0 900 600" width="900" height="600" xmlns="http://www.w3.org/2000/svg" xmlns:xlink="http://www.w3.org/1999/xlink" version="1.1"><rect x="0" y="0" width="900" height="600" fill="#ffffff"></rect><path d="M156 600L254 600L254 550L142 550L142 500L294 500L294 450L262 450L262 400L308 400L308 350L398 350L398 300L272 300L272 250L245 250L245 200L185 200L185 150L371 150L371 100L178 100L178 50L249 50L249 0L900 0L900 50L900 50L900 100L900 100L900 150L900 150L900 200L900 200L900 250L900 250L900 300L900 300L900 350L900 350L900 400L900 400L900 450L900 450L900 500L900 500L900 550L900 550L900 600L900 600Z" fill="#d5d8ff"></path><path d="M430 600L352 600L352 550L386 550L386 500L354 500L354 450L367 450L367 400L451 400L451 350L245 350L245 300L285 300L285 250L237 250L237 200L311 200L311 150L332 150L332 100L330 100L330 50L218 50L218 0L900 0L900 50L900 50L900 100L900 100L900 150L900 150L900 200L900 200L900 250L900 250L900 300L900 300L900 350L900 350L900 400L900 400L900 450L900 450L900 500L900 500L900 550L900 550L900 600L900 600Z" fill="#c5c9ff"></path><path d="M522 600L343 600L343 550L381 550L381 500L357 500L357 450L314 450L314 400L549 400L549 350L517 350L517 300L459 300L459 250L352 250L352 200L311 200L311 150L479 150L479 100L514 100L514 50L554 50L554 0L900 0L900 50L900 50L900 100L900 100L900 150L900 150L900 200L900 200L900 250L900 250L900 300L900 300L900 350L900 350L900 400L900 400L900 450L900 450L900 500L900 500L900 550L900 550L900 600L900 600Z" fill="#b6baff"></path><path d="M475 600L619 600L619 550L601 550L601 500L604 500L604 450L602 450L602 400L586 400L586 350L423 350L423 300L669 300L669 250L548 250L548 200L645 200L645 150L653 150L653 100L504 100L504 50L603 50L603 0L900 0L900 50L900 50L900 100L900 100L900 150L900 150L900 200L900 200L900 250L900 250L900 300L900 300L900 350L900 350L900 400L900 400L900 450L900 450L900 500L900 500L900 550L900 550L900 600L900 600Z" fill="#a8aaff"></path><path d="M719 600L663 600L663 550L582 550L582 500L617 500L617 450L698 450L698 400L747 400L747 350L643 350L643 300L769 300L769 250L606 250L606 200L761 200L761 150L599 150L599 100L750 100L750 50L698 50L698 0L900 0L900 50L900 50L900 100L900 100L900 150L900 150L900 200L900 200L900 250L900 250L900 300L900 300L900 350L900 350L900 400L900 400L900 450L900 450L900 500L900 500L900 550L900 550L900 600L900 600Z" fill="#999bff"></path><path d="M774 600L715 600L715 550L684 550L684 500L848 500L848 450L850 450L850 400L714 400L714 350L873 350L873 300L786 300L786 250L828 250L828 200L732 200L732 150L711 150L711 100L777 100L777 50L872 50L872 0L900 0L900 50L900 50L900 100L900 100L900 150L900 150L900 200L900 200L900 250L900 250L900 300L900 300L900 350L900 350L900 400L900 400L900 450L900 450L900 500L900 500L900 550L900 550L900 600L900 600Z" fill="#8b8bff"></path></svg>